<svg version="1.1" xmlns="http://www.w3.org/2000/svg" width="95" height="95">
    <defs>
        <radialGradient id="grad1" cx="50%" cy="50%" r="50%" fx="50%" fy="50%">
            <stop offset="0%" style="stop-color: white; stop-opacity: 0.9"/>
            <stop offset="100%" style="stop-color: #09ade7; stop-opacity: 1"/>
        </radialGradient>
    </defs>
<!--    <rect width="100%" height="100%" fill="#1a202c" rx="5" ry="5"/>-->
    <path d="M0 0 C0.93199219 0.21140625 1.86398438 0.4228125 2.82421875 0.640625 C4.21060547 0.94226563 4.21060547 0.94226563 5.625 1.25 C7.05392578 1.56710937 7.05392578 1.56710937 8.51171875 1.890625 C21.02072369 4.53182252 35.73803505 4.17160538 47.98828125 0.546875 C51.36506172 -0.33129701 54.13024317 -0.85792785 57.28515625 0.8515625 C64.99681965 7.66039702 71.62661077 16.38212471 72.859375 26.83984375 C72.40043137 30.86720306 71.04038804 31.83040687 68.01171875 34.453125 C57.15221953 44.74510801 50.62679977 58.67855446 47.58984375 73.24609375 C46.51171875 76.890625 46.51171875 76.890625 44.83203125 78.328125 C34.66061505 80.93432417 19.25073249 82.41052625 9.51171875 77.890625 C7.9453125 74.80078125 7.9453125 74.80078125 6.94921875 70.953125 C6.55609124 69.58364085 6.15495542 68.2164318 5.74609375 66.8515625 C5.54564453 66.17706055 5.34519531 65.50255859 5.13867188 64.80761719 C2.26389488 56.0176059 -3.55959818 48.81505214 -9.48828125 41.890625 C-10.13539062 41.12105469 -10.7825 40.35148437 -11.44921875 39.55859375 C-14.0323444 36.5340479 -16.15667765 34.11169406 -19.48828125 31.890625 C-20.68284751 25.02186899 -17.76886241 18.83337892 -14.48828125 12.890625 C-11.72027133 9.30336171 -8.71076964 6.07087103 -5.48828125 2.890625 C-5.01261719 2.28863281 -4.53695313 1.68664062 -4.046875 1.06640625 C-2.48828125 -0.109375 -2.48828125 -0.109375 0 0 Z "
          fill="url(#grad1)" transform="translate(20.48828125,9.109375)"/>
</svg>
